<?xml version="1.0" ?><svg baseProfile="tiny" id="Layer_1" version="1.2" viewBox="0 0 512 512" xml:space="preserve" xmlns="http://www.w3.org/2000/svg" xmlns:xlink="http://www.w3.org/1999/xlink"><g id="XMLID_1680_"><circle cx="256" cy="256" fill="#00AEBB" id="XMLID_2286_" r="256"/><g id="XMLID_121_"><path d="M231,220.1H118v188H231L231,220.1L231,220.1z M150.5,401.7H124v-35.3    c0-1.7,1.4-3.1,3.1-3.1h20.2c1.7,0,3.1,1.4,3.1,3.1L150.5,401.7L150.5,401.7z M150.5,356.1H124v-35.3c0-1.7,1.4-3.1,3.1-3.1h20.2    c1.7,0,3.1,1.4,3.1,3.1L150.5,356.1L150.5,356.1z M150.5,310.6H124v-35.7c0-1.5,1.2-2.7,2.7-2.7H148c1.3,0,2.5,1.1,2.5,2.5V310.6z     M150.5,265.1H124v-35.8c0-1.5,1.2-2.7,2.7-2.7h21.1c1.5,0,2.7,1.2,2.7,2.7V265.1z M165.3,391h-11.8v-16c0-1.4,1-2.6,2.1-2.6h7.6    c1.2,0,2.1,1.2,2.1,2.6V391z M165.3,345.3h-11.8v-16c0-1.4,1-2.6,2.1-2.6h7.6c1.2,0,2.1,1.2,2.1,2.6V345.3z M165.3,299.7h-11.8    v-16c0-1.4,1-2.6,2.1-2.6h7.6c1.2,0,2.1,1.2,2.1,2.6V299.7z M165.3,254.1h-11.8v-16c0-1.4,1-2.6,2.1-2.6h7.6    c1.2,0,2.1,1.2,2.1,2.6V254.1z M180.7,391h-11.8v-16c0-1.4,1-2.6,2.1-2.6h7.6c1.2,0,2.1,1.2,2.1,2.6V391z M180.7,345.3h-11.8v-16    c0-1.4,1-2.6,2.1-2.6h7.6c1.2,0,2.1,1.2,2.1,2.6V345.3z M180.7,299.7h-11.8v-16c0-1.4,1-2.6,2.1-2.6h7.6c1.2,0,2.1,1.2,2.1,2.6    V299.7z M180.7,254.1h-11.8v-16c0-1.4,1-2.6,2.1-2.6h7.6c1.2,0,2.1,1.2,2.1,2.6V254.1z M196,391h-11.8v-16c0-1.4,1-2.6,2.1-2.6    h7.6c1.2,0,2.1,1.2,2.1,2.6V391z M196,345.3h-11.8v-16c0-1.4,1-2.6,2.1-2.6h7.6c1.2,0,2.1,1.2,2.1,2.6V345.3z M196,299.7h-11.8    v-16c0-1.4,1-2.6,2.1-2.6h7.6c1.2,0,2.1,1.2,2.1,2.6V299.7z M196,254.1h-11.8v-16c0-1.4,1-2.6,2.1-2.6h7.6c1.2,0,2.1,1.2,2.1,2.6    V254.1z M225.4,401.7h-26.5v-35.2c0-1.8,1.5-3.3,3.3-3.3h20c1.8,0,3.3,1.5,3.3,3.3L225.4,401.7L225.4,401.7z M225.4,356.1h-26.5    v-35.2c0-1.8,1.5-3.3,3.3-3.3h20c1.8,0,3.3,1.5,3.3,3.3L225.4,356.1L225.4,356.1z M225.4,310.6h-26.5v-35.2c0-1.8,1.5-3.3,3.3-3.3    h20c1.8,0,3.3,1.5,3.3,3.3L225.4,310.6L225.4,310.6z M225.4,265.1h-26.5v-35.2c0-1.8,1.5-3.3,3.3-3.3h20c1.8,0,3.3,1.5,3.3,3.3    L225.4,265.1L225.4,265.1z" fill="#FFFFFF" id="XMLID_517_"/><path d="M332.7,332H232.1v76.2h100.5V332z M267.7,407.2h-28.2v-40.7c0-6.9,5.6-12.5,12.5-12.5    h3.1c6.9,0,12.5,5.6,12.5,12.5V407.2z M302.7,394.4h-13.6v-13.6l13.6,0.1V394.4z M302.7,380.3l-13.6-0.1v-13.5h13.6V380.3z     M316.7,394.4h-13.6v-13.6l13.6,0.1V394.4z M316.7,380.4l-13.6-0.1v-13.6h13.6V380.4z" fill="#FFFFFF" id="XMLID_1009_"/><path d="M394,220.1h-60V408h60V220.1z M335.9,348.4v-7.3h56.7v7.3H335.9z M392.6,353.8v7.3h-56.7    v-7.3H392.6z M392.6,335.6h-56.7v-7.3h56.7V335.6z M392.6,322.9h-56.7v-7.3h56.7V322.9z M392.6,297.5h-56.7v-7.3h56.7V297.5z     M392.6,284.7h-56.7v-7.3h56.7V284.7z M392.6,272h-56.7v-7.3h56.7V272z M392.6,259.3h-56.7V252h56.7V259.3z M392.5,246.5h-56.7    v-7.3h56.7V246.5z M335.7,226.5h56.7v7.3h-56.7V226.5z M335.7,302.8h56.7v7.3h-56.7V302.8z M335.8,366.5h56.7v7.3h-56.7V366.5z     M335.9,379.3h56.7v7.3h-56.7V379.3z M392.6,399.3h-56.7V392h56.7V399.3z" fill="#FFFFFF" id="XMLID_1027_"/><rect fill="#FFFFFF" height="14" id="XMLID_1041_" width="13.2" x="290" y="253.1"/><rect fill="#FFFFFF" height="14" id="XMLID_1042_" width="13.2" x="290" y="237.5"/><rect fill="#FFFFFF" height="14" id="XMLID_1043_" width="12.5" x="275.9" y="237.5"/><rect fill="#FFFFFF" height="14" id="XMLID_1044_" width="13" x="304.8" y="268.7"/><rect fill="#FFFFFF" height="14" id="XMLID_1045_" width="13" x="304.8" y="253.1"/><rect fill="#FFFFFF" height="14" id="XMLID_1046_" width="12.3" x="248.4" y="299.8"/><rect fill="#FFFFFF" height="14" id="XMLID_1047_" width="13" x="304.8" y="284.2"/><rect fill="#FFFFFF" height="14" id="XMLID_1048_" width="12.3" x="248.4" y="268.7"/><rect fill="#FFFFFF" height="14" id="XMLID_1049_" width="12.3" x="248.4" y="284.2"/><rect fill="#FFFFFF" height="14" id="XMLID_1050_" width="12.1" x="262.3" y="253.1"/><rect fill="#FFFFFF" height="14" id="XMLID_1051_" width="12.1" x="262.3" y="237.5"/><rect fill="#FFFFFF" height="14" id="XMLID_1052_" width="12.3" x="248.4" y="253.1"/><rect fill="#FFFFFF" height="14" id="XMLID_1053_" width="11.5" x="235.4" y="284.2"/><rect fill="#FFFFFF" height="14" id="XMLID_1054_" width="13.2" x="290" y="284.2"/><rect fill="#FFFFFF" height="14" id="XMLID_1055_" width="12.5" x="275.9" y="268.7"/><rect fill="#FFFFFF" height="14" id="XMLID_1056_" width="13.2" x="290" y="268.7"/><rect fill="#FFFFFF" height="14" id="XMLID_1081_" width="12.5" x="275.9" y="253.1"/><rect fill="#FFFFFF" height="14" id="XMLID_1082_" width="11.5" x="235.4" y="268.7"/><rect fill="#FFFFFF" height="12.8" id="XMLID_1083_" width="11.5" x="235.4" y="315.4"/><rect fill="#FFFFFF" height="14" id="XMLID_1084_" width="12.5" x="275.9" y="284.2"/><rect fill="#FFFFFF" height="14" id="XMLID_1085_" width="12.1" x="262.3" y="268.7"/><rect fill="#FFFFFF" height="14" id="XMLID_1086_" width="13.2" x="290" y="299.8"/><rect fill="#FFFFFF" height="14" id="XMLID_1087_" width="12.5" x="275.9" y="299.8"/><rect fill="#FFFFFF" height="14" id="XMLID_1088_" width="12.1" x="262.3" y="284.2"/><rect fill="#FFFFFF" height="14" id="XMLID_1089_" width="12.1" x="262.3" y="299.8"/><rect fill="#FFFFFF" height="12.9" id="XMLID_1090_" width="12.3" x="248.4" y="223.1"/><rect fill="#FFFFFF" height="14" id="XMLID_1091_" width="12.3" x="248.4" y="237.5"/><rect fill="#FFFFFF" height="12.9" id="XMLID_1092_" width="12.1" x="262.3" y="223.1"/><rect fill="#FFFFFF" height="14" id="XMLID_1093_" width="11.5" x="235.4" y="237.5"/><rect fill="#FFFFFF" height="14" id="XMLID_1094_" width="11.5" x="235.4" y="253.1"/><rect fill="#FFFFFF" height="12.9" id="XMLID_1095_" width="12.5" x="275.9" y="223.1"/><rect fill="#FFFFFF" height="12.9" id="XMLID_1096_" width="13.2" x="290" y="223.1"/><rect fill="#FFFFFF" height="12.9" id="XMLID_1097_" width="13" x="304.8" y="223.1"/><rect fill="#FFFFFF" height="14" id="XMLID_1098_" width="11.5" x="235.4" y="299.8"/><path d="M333.2,220.1H232.7v111h100.5V220.1z M331.4,329.1h-96.9V222.2h96.9V329.1z" fill="#FFFFFF" id="XMLID_1101_"/><rect fill="#FFFFFF" height="12.8" id="XMLID_1102_" width="12.3" x="248.4" y="315.4"/><rect fill="#FFFFFF" height="12.9" id="XMLID_1103_" width="11.2" x="319.4" y="223.1"/><rect fill="#FFFFFF" height="12.8" id="XMLID_1104_" width="11.2" x="319.4" y="315.4"/><rect fill="#FFFFFF" height="12.9" id="XMLID_1105_" width="11.5" x="235.4" y="223.1"/><rect fill="#FFFFFF" height="12.8" id="XMLID_1106_" width="13" x="304.8" y="315.4"/><rect fill="#FFFFFF" height="12.8" id="XMLID_1107_" width="13.2" x="290" y="315.4"/><rect fill="#FFFFFF" height="12.8" id="XMLID_1108_" width="12.5" x="275.9" y="315.4"/><rect fill="#FFFFFF" height="14" id="XMLID_1109_" width="13" x="304.8" y="299.8"/><rect fill="#FFFFFF" height="12.8" id="XMLID_1110_" width="12.1" x="262.3" y="315.4"/><rect fill="#FFFFFF" height="14" id="XMLID_1111_" width="11.2" x="319.4" y="284.2"/><rect fill="#FFFFFF" height="14" id="XMLID_1112_" width="11.2" x="319.4" y="299.8"/><rect fill="#FFFFFF" height="14" id="XMLID_1113_" width="11.2" x="319.4" y="253.1"/><rect fill="#FFFFFF" height="14" id="XMLID_1114_" width="11.2" x="319.4" y="237.5"/><rect fill="#FFFFFF" height="14" id="XMLID_1115_" width="11.2" x="319.4" y="268.7"/><rect fill="#FFFFFF" height="14" id="XMLID_1116_" width="13" x="304.8" y="237.5"/><path d="M119.8,219.3h109.3c1,0,1.9-0.8,1.9-1.9V97.9c0-1-0.8-1.9-1.9-1.9l-109.3,0.4    c-1,0-1.9,0.8-1.9,1.9v119.2C118,218.5,118.8,219.3,119.8,219.3z M123,177.8h103.2c1,0,1.9,0.8,1.9,1.9v3.6c0,1-0.8,1.9-1.9,1.9    H123c-1,0-1.9-0.8-1.9-1.9v-3.6C121.2,178.6,122,177.8,123,177.8z M121.3,170.5v-3.6c0-1,0.8-1.9,1.9-1.9h103.2    c1,0,1.9,0.8,1.9,1.9v3.6c0,1-0.8,1.9-1.9,1.9H123.1C122.1,172.4,121.3,171.6,121.3,170.5z M121.3,192.4c0-1,0.8-1.9,1.9-1.9    h103.2c1,0,1.9,0.8,1.9,1.9v3.6c0,1-0.8,1.9-1.9,1.9H123.2c-1,0-1.9-0.8-1.9-1.9V192.4z M228.3,208.7c0,1-0.8,1.9-1.9,1.9H123.2    c-1,0-1.9-0.8-1.9-1.9v-3.6c0-1,0.8-1.9,1.9-1.9h103.2c1,0,1.9,0.8,1.9,1.9V208.7z M228.3,157.8c0,1-0.8,1.9-1.9,1.9H123.2    c-1,0-1.9-0.8-1.9-1.9v-3.5c0-1,0.8-1.9,1.9-1.9h103.2c1,0,1.9,0.8,1.9,1.9V157.8z M228.2,145.1c0,1-0.8,1.9-1.9,1.9H123.1    c-1,0-1.9-0.8-1.9-1.9v-3.6c0-1,0.8-1.9,1.9-1.9h103.2c1,0,1.9,0.8,1.9,1.9V145.1z M228.2,132.4c0,1-0.8,1.9-1.9,1.9H123.1    c-1,0-1.9-0.8-1.9-1.9v-3.6c0-1,0.8-1.9,1.9-1.9h103.2c1,0,1.9,0.8,1.9,1.9V132.4z M121.2,103.3c0-1,0.8-1.9,1.9-1.9h103.2    c1,0,1.9,0.8,1.9,1.9v3.6c0,1-0.8,1.9-1.9,1.9H123.1c-1,0-1.9-0.8-1.9-1.9V103.3z M121,116c0-1,0.8-1.9,1.9-1.9h103.2    c1,0,1.9,0.8,1.9,1.9v3.6c0,1-0.8,1.9-1.9,1.9H122.9c-1,0-1.9-0.8-1.9-1.9V116z" fill="#FFFFFF" id="XMLID_1119_"/><rect fill="#FFFFFF" height="6" id="XMLID_1128_" width="288.8" x="111.6" y="410"/></g></g></svg>